<?xml version="1.0" encoding="utf-8"?>
<!-- Generator: Adobe Illustrator 22.1.0, SVG Export Plug-In . SVG Version: 6.00 Build 0)  -->
<svg version="1.1" xmlns="http://www.w3.org/2000/svg" xmlns:xlink="http://www.w3.org/1999/xlink" x="0px" y="0px"
	 viewBox="0 0 120 120" style="enable-background:new 0 0 120 120;" xml:space="preserve">
<style type="text/css">
	.st0{fill:#27333B;}
	.st1{fill:#323A3F;}
	.st2{fill:#1D2D37;}
	.st3{fill:#132734;}
	.st4{fill:#3B4043;}
	.st5{fill:#424445;}
	.st6{fill:#4FBA6E;}
	.st7{fill:#48A0DC;}
	.st8{fill:#4AA461;}
	.st9{fill:#51A2C9;}
	.st10{fill:#F3D55A;}
	.st11{fill:#DCBD56;}
	.st12{fill:#D0E8F9;}
	.st13{fill:#EAF6FD;}
	.st14{fill:#8697CB;}
	.st15{font-family:'SurfingCapital';}
	.st16{font-size:11.5245px;}
	.st17{font-family:'BuiltTitlingRg-Bold';}
	.st18{font-size:22.5652px;}
</style>
<g id="Retângulo_Arredondado_1_xA0_Imagem_1_">
</g>
<g id="map_xA0_Imagem_1_">
</g>
<g id="UNIDESC">
</g>
<g id="LOCALIZA">
	<g>
		<path class="st0" d="M120.3,21.3c0,1.1,0,2.2,0,3.4c-0.6,0.1-0.9,0.5-1.2,0.9C88,56.6,56.8,87.8,25.7,118.9
			c-0.4,0.4-0.8,0.7-0.9,1.2c-7.4,0.1-13.6-2.7-18.5-8.1c-1.9-2.1-3.5-4.4-4.3-7.2c0.9-0.3,1.2-1.1,1.8-1.7
			c32.3-32.3,64.6-64.5,96.9-96.8c1.5-1.5,2.9-3,4.6-4.2c0.9,0.4,1.8,0.6,2.7,1.1c6.1,3.5,10.1,8.6,11.8,15.4
			C119.9,19.5,119.8,20.4,120.3,21.3z"/>
		<path class="st1" d="M105.2,2.1c-1.7,1.2-3.1,2.8-4.6,4.2C68.4,38.6,36.1,70.8,3.8,103.1c-0.6,0.6-0.9,1.4-1.8,1.7
			c-1.1-2.3-1.6-4.8-1.6-7.3c-0.1-8.5,0-16.9,0-25.4c0.6-0.1,1.1-0.5,1.5-0.9C25,48,48.2,24.9,71.4,1.7c0.4-0.4,0.8-0.9,0.9-1.5
			c9,0,17.9,0,26.9,0c0.1,0.3,0.4,0.2,0.6,0.2C101.7,0.8,103.6,1,105.2,2.1z"/>
		<path class="st2" d="M24.8,120.1c0.1-0.6,0.6-0.9,0.9-1.2C56.8,87.8,88,56.6,119.1,25.5c0.4-0.4,0.7-0.8,1.2-0.9
			c0,10.6,0,21.1,0,31.7c-0.6,0.1-0.9,0.5-1.2,0.9C98.5,77.8,78,98.3,57.4,118.9c-0.4,0.4-0.8,0.7-0.9,1.2
			C45.9,120.1,35.4,120.1,24.8,120.1z"/>
		<path class="st3" d="M56.5,120.1c0.1-0.6,0.6-0.9,0.9-1.2C78,98.3,98.5,77.8,119.1,57.2c0.4-0.4,0.7-0.8,1.2-0.9
			c0,14.3,0,28.6,0,43c-0.4,0.2-0.3,0.6-0.3,0.9c-2.5,12.2-12,19.9-24.4,19.9c-7.2,0-14.4,0-21.6,0
			C68.2,120.2,62.3,120.1,56.5,120.1z"/>
		<path class="st4" d="M72.3,0.2c-0.1,0.6-0.5,1.1-0.9,1.5C48.2,24.9,25,48,1.9,71.2c-0.4,0.4-0.9,0.8-1.5,0.9c0-8.9,0-17.8,0-26.6
			c0.5-0.1,0.8-0.5,1.1-0.8C16,30.2,30.4,15.8,44.9,1.3c0.3-0.3,0.7-0.6,0.8-1.2C54.6,0.2,63.4,0.2,72.3,0.2z"/>
		<path class="st5" d="M45.7,0.2c0,0.5-0.5,0.8-0.8,1.2C30.4,15.8,16,30.2,1.5,44.7c-0.3,0.3-0.6,0.8-1.1,0.8c0-7.2-0.1-14.3,0-21.5
			c0-11.2,7.9-20.9,18.9-23.4c0.7-0.1,1.4-0.1,2-0.5C29.4,0.2,37.5,0.2,45.7,0.2z"/>
		<g>
			<g>
				<polygon class="st6" points="46.5,40.6 21.6,15.7 18,16.5 18,84.5 21.3,83.8 46.5,58.6 				"/>
				<polygon class="st7" points="32.8,81.2 46.5,78.2 46.5,67.6 				"/>
				<polygon class="st6" points="46.5,10.2 28.9,14.1 46.5,31.7 				"/>
				<polygon class="st6" points="96.2,8.9 73.3,16.5 73.3,31.8 				"/>
				<polygon class="st7" points="73.3,40.7 73.3,82.9 101.8,71.9 101.8,12.2 				"/>
				<polygon class="st8" points="59.9,45.2 73.3,31.8 73.3,16.5 46.5,10.2 46.5,31.7 				"/>
				<polygon class="st8" points="46.5,40.6 46.5,58.6 55.5,49.6 				"/>
				<polygon class="st9" points="46.5,67.6 46.5,78.2 73.3,82.9 73.3,40.7 				"/>
				<polygon class="st10" points="46.5,31.7 28.9,14.1 21.6,15.7 46.5,40.6 				"/>
				<polygon class="st10" points="46.5,58.6 21.3,83.8 32.8,81.2 46.5,67.6 				"/>
				<polygon class="st10" points="73.3,40.7 101.8,12.2 101.8,7 96.2,8.9 73.3,31.8 				"/>
				<polygon class="st11" points="59.9,45.2 46.5,31.7 46.5,40.6 55.5,49.6 46.5,58.6 46.5,67.6 73.3,40.7 73.3,31.8 				"/>
			</g>
			<g>
				<circle class="st12" cx="82.5" cy="71.6" r="15.5"/>
				<path class="st13" d="M88.1,57.1l-20,20c1.1,2.9,3.1,5.3,5.5,7.1l21.6-21.6C93.4,60.2,91,58.3,88.1,57.1z"/>
				<path class="st14" d="M104.5,92.9L95.1,83c2.8-3,4.5-7,4.5-11.5c0-9.4-7.7-17.1-17.1-17.1s-17.1,7.7-17.1,17.1
					s7.7,17.1,17.1,17.1c3.9,0,7.4-1.3,10.3-3.5l9.5,9.9c0.3,0.3,0.7,0.5,1.1,0.5c0.4,0,0.8-0.1,1.1-0.4
					C105.1,94.5,105.1,93.5,104.5,92.9z M68.6,71.6c0-7.7,6.2-13.9,13.9-13.9s13.9,6.2,13.9,13.9s-6.2,13.9-13.9,13.9
					S68.6,79.2,68.6,71.6z"/>
			</g>
		</g>
		<text transform="matrix(0.9997 0 0 1 25.4922 93.2549)" class="st7 st15 st16">UNIDESC</text>
		<text transform="matrix(1.0076 -2.189744e-02 -9.076723e-02 0.9959 26.0793 110.9345)" class="st10 st17 st18">LOCALIZA</text>
	</g>
</g>
</svg>
