<?xml version="1.0" encoding="utf-8"?>
<!-- Generator: Adobe Illustrator 22.1.0, SVG Export Plug-In . SVG Version: 6.00 Build 0)  -->
<svg version="1.1" xmlns="http://www.w3.org/2000/svg" xmlns:xlink="http://www.w3.org/1999/xlink" x="0px" y="0px"
	 viewBox="0 0 120 120" style="enable-background:new 0 0 120 120;" xml:space="preserve">
<style type="text/css">
	.st0{fill:#4FBA6E;}
	.st1{fill:#48A0DC;}
	.st2{fill:#4AA461;}
	.st3{fill:#51A2C9;}
	.st4{fill:#F3D55A;}
	.st5{fill:#DCBD56;}
	.st6{fill:#D0E8F9;}
	.st7{fill:#EAF6FD;}
	.st8{fill:#8697CB;}
	.st9{font-family:'SurfingCapital';}
	.st10{font-size:11.5245px;}
	.st11{font-family:'BuiltTitlingRg-Bold';}
	.st12{font-size:22.5652px;}
</style>
<g id="Retângulo_Arredondado_1_xA0_Imagem_1_">
</g>
<g id="map_xA0_Imagem_1_">
	<g>
		<g>
			<polygon class="st0" points="46.5,40.6 21.6,15.7 18,16.5 18,84.5 21.3,83.8 46.5,58.6 			"/>
			<polygon class="st1" points="32.8,81.2 46.5,78.2 46.5,67.6 			"/>
			<polygon class="st0" points="46.5,10.2 28.9,14.1 46.5,31.7 			"/>
			<polygon class="st0" points="96.2,8.9 73.3,16.5 73.3,31.8 			"/>
			<polygon class="st1" points="73.3,40.7 73.3,82.9 101.8,71.9 101.8,12.2 			"/>
			<polygon class="st2" points="59.9,45.2 73.3,31.8 73.3,16.5 46.5,10.2 46.5,31.7 			"/>
			<polygon class="st2" points="46.5,40.6 46.5,58.6 55.5,49.6 			"/>
			<polygon class="st3" points="46.5,67.6 46.5,78.2 73.3,82.9 73.3,40.7 			"/>
			<polygon class="st4" points="46.5,31.7 28.9,14.1 21.6,15.7 46.5,40.6 			"/>
			<polygon class="st4" points="46.5,58.6 21.3,83.8 32.8,81.2 46.5,67.6 			"/>
			<polygon class="st4" points="73.3,40.7 101.8,12.2 101.8,7 96.2,8.9 73.3,31.8 			"/>
			<polygon class="st5" points="59.9,45.2 46.5,31.7 46.5,40.6 55.5,49.6 46.5,58.6 46.5,67.6 73.3,40.7 73.3,31.8 			"/>
		</g>
		<g>
			<circle class="st6" cx="82.5" cy="71.6" r="15.5"/>
			<path class="st7" d="M88.1,57.1l-20,20c1.1,2.9,3.1,5.3,5.5,7.1l21.6-21.6C93.4,60.2,91,58.3,88.1,57.1z"/>
			<path class="st8" d="M104.5,92.9L95.1,83c2.8-3,4.5-7,4.5-11.5c0-9.4-7.7-17.1-17.1-17.1s-17.1,7.7-17.1,17.1s7.7,17.1,17.1,17.1
				c3.9,0,7.4-1.3,10.3-3.5l9.5,9.9c0.3,0.3,0.7,0.5,1.1,0.5c0.4,0,0.8-0.1,1.1-0.4C105.1,94.5,105.1,93.5,104.5,92.9z M68.6,71.6
				c0-7.7,6.2-13.9,13.9-13.9s13.9,6.2,13.9,13.9s-6.2,13.9-13.9,13.9S68.6,79.2,68.6,71.6z"/>
		</g>
	</g>
</g>
<g id="UNIDESC">
	<text transform="matrix(0.9997 0 0 1 25.4922 93.2549)" class="st1 st9 st10">UNIDESC</text>
</g>
<g id="LOCALIZA">
	<text transform="matrix(1.0076 -2.189744e-02 -9.076723e-02 0.9959 26.0793 110.9345)" class="st4 st11 st12">LOCALIZA</text>
</g>
</svg>
